<svg width="24" height="4" viewBox="0 0 24 4" fill="none" xmlns="http://www.w3.org/2000/svg">
<path d="M0 0.379883H0.93C1.28 0.379883 1.55 0.469883 1.74 0.639883C1.93 0.809883 2.03 1.06988 2.03 1.40988C2.03 1.64988 1.98 1.84988 1.87 2.00988C1.76 2.16988 1.62 2.28988 1.46 2.35988C1.29 2.42988 1.12 2.46988 0.94 2.46988H0.64V3.41988H0V0.379883ZM0.87 2.16988C1.03 2.16988 1.14 2.11988 1.22 2.00988C1.29 1.89988 1.33 1.70988 1.33 1.43988C1.33 1.15988 1.29 0.969883 1.22 0.849883C1.14 0.739883 1.02 0.679883 0.87 0.679883H0.64V2.16988H0.87Z" fill="white"/>
<path d="M2.54 3.18C2.35 2.99 2.25 2.69 2.25 2.29C2.25 1.88 2.34 1.57 2.53 1.36C2.72 1.14 2.98 1.03 3.29 1.03C3.58 1.03 3.81 1.12 3.97 1.31C4.13 1.49 4.21 1.75 4.21 2.09C4.21 2.17 4.2 2.23 4.19 2.29C4.18 2.34 4.17 2.38 4.17 2.39H2.91C2.91 2.67 2.95 2.87 3.03 2.99C3.11 3.11 3.24 3.17 3.42 3.17C3.53 3.17 3.62 3.15 3.7 3.1C3.78 3.06 3.85 3.01 3.89 2.95C3.94 2.9 3.96 2.86 3.96 2.86L4.17 3.02C4.17 3.03 4.14 3.08 4.07 3.16C4.02 3.23 3.92 3.3 3.8 3.37C3.68 3.44 3.53 3.47 3.35 3.47C3 3.47 2.73 3.38 2.54 3.18ZM3.63 2.08V1.97C3.63 1.73 3.61 1.57 3.56 1.47C3.51 1.38 3.42 1.33 3.29 1.33C3.2 1.33 3.13 1.35 3.08 1.4C3.03 1.44 2.99 1.52 2.97 1.62C2.94 1.73 2.92 1.88 2.91 2.08H3.63ZM3.35 0.76L3.08 0.71L3.41 0L3.91 0.15L3.35 0.76Z" fill="white"/>
<path d="M4.6001 1.07979H5.0401L5.1401 1.46979H5.1601C5.1601 1.44979 5.1701 1.40979 5.2001 1.32979C5.2301 1.25979 5.2701 1.18979 5.3401 1.12979C5.4101 1.05979 5.5001 1.02979 5.6101 1.02979C5.6701 1.02979 5.7401 1.03979 5.8201 1.05979C5.9001 1.07979 5.9501 1.08979 5.9801 1.09979L5.9201 1.52979C5.9001 1.51979 5.8401 1.50979 5.7601 1.48979C5.6701 1.46979 5.6001 1.45979 5.5301 1.45979C5.4601 1.45979 5.4001 1.47979 5.3501 1.51979C5.3101 1.56979 5.2801 1.60979 5.2601 1.65979C5.2301 1.70979 5.2201 1.72979 5.2201 1.73979V3.41979H4.6001V1.07979Z" fill="white"/>
<path d="M6.38009 3.17979C6.19009 2.98979 6.09009 2.68979 6.09009 2.28979C6.09009 1.87979 6.18009 1.56979 6.37009 1.35979C6.56009 1.13979 6.81009 1.02979 7.13009 1.02979C7.42009 1.02979 7.65009 1.11979 7.81009 1.30979C7.97009 1.48979 8.05009 1.74979 8.05009 2.08979C8.05009 2.16979 8.04009 2.22979 8.03009 2.28979C8.02009 2.33979 8.01009 2.36979 8.01009 2.38979H6.75009C6.75009 2.66979 6.79009 2.86979 6.87009 2.98979C6.95009 3.10979 7.08009 3.16979 7.26009 3.16979C7.37009 3.16979 7.46009 3.14979 7.54009 3.09979C7.62009 3.05979 7.69009 3.00979 7.73009 2.94979C7.78009 2.88979 7.81009 2.84979 7.81009 2.84979L8.02009 3.00979C8.02009 3.01979 7.99009 3.06979 7.92009 3.14979C7.86009 3.22979 7.76009 3.29979 7.64009 3.36979C7.52009 3.43979 7.37009 3.46979 7.19009 3.46979C6.84009 3.46979 6.57009 3.37979 6.38009 3.17979ZM7.47009 2.07979V1.96979C7.47009 1.72979 7.45009 1.56979 7.40009 1.46979C7.34009 1.37979 7.26009 1.32979 7.13009 1.32979C7.04009 1.32979 6.97009 1.34979 6.92009 1.39979C6.87009 1.43979 6.83009 1.51979 6.80009 1.61979C6.78009 1.72979 6.76009 1.87979 6.75009 2.07979H7.47009Z" fill="white"/>
<path d="M8.29004 3.42008V3.14008L9.36004 1.40008H8.37004L8.36004 1.08008H10.07V1.36008L9.01004 3.10008H10.03L10.04 3.42008H8.29004Z" fill="white"/>
<path d="M10.47 0.379883H11.5C11.97 0.379883 12.33 0.509883 12.59 0.769883C12.84 1.02988 12.97 1.40988 12.97 1.90988C12.97 2.39988 12.85 2.77988 12.6 3.03988C12.35 3.29988 11.99 3.42988 11.51 3.42988H10.47V0.379883ZM11.51 3.08988C11.69 3.08988 11.84 3.04988 11.94 2.97988C12.05 2.89988 12.13 2.77988 12.18 2.60988C12.23 2.43988 12.25 2.20988 12.25 1.91988C12.25 1.62988 12.22 1.38988 12.17 1.21988C12.13 1.02988 12.05 0.899883 11.94 0.829883C11.83 0.749883 11.69 0.709883 11.5 0.709883H11.11V3.08988H11.51Z" fill="white"/>
<path d="M13.4801 0.629766C13.4101 0.559766 13.3701 0.469766 13.3701 0.359766C13.3701 0.259766 13.4101 0.169766 13.4801 0.0997657C13.5501 0.0397657 13.6301 0.00976562 13.7301 0.00976562C13.8301 0.00976562 13.9101 0.0397657 13.9701 0.0997657C14.0401 0.169766 14.0701 0.259766 14.0701 0.369766C14.0701 0.479766 14.0401 0.569766 13.9701 0.639766C13.9001 0.699766 13.8201 0.729766 13.7301 0.729766C13.6301 0.729766 13.5501 0.699766 13.4801 0.629766ZM13.4101 3.41977V1.07977H14.0301V3.41977H13.4101Z" fill="white"/>
<path d="M14.7499 3.38979C14.6299 3.33979 14.5399 3.27979 14.4699 3.21979C14.4099 3.15979 14.3799 3.12979 14.3799 3.10979L14.5499 2.86979C14.5499 2.87979 14.5699 2.89979 14.6199 2.94979C14.6699 2.99979 14.7299 3.04979 14.8099 3.08979C14.8899 3.12979 14.9699 3.14979 15.0699 3.14979C15.1899 3.14979 15.2699 3.11979 15.3399 3.05979C15.3999 2.99979 15.4299 2.91979 15.4299 2.82979C15.4299 2.73979 15.3999 2.65979 15.3299 2.60979C15.2599 2.55979 15.1699 2.49979 15.0399 2.43979C14.9199 2.37979 14.8199 2.32979 14.7499 2.27979C14.6799 2.22979 14.6099 2.15979 14.5599 2.07979C14.5099 1.98979 14.4799 1.87979 14.4799 1.74979C14.4799 1.51979 14.5599 1.33979 14.7199 1.20979C14.8799 1.08979 15.0699 1.02979 15.3099 1.02979C15.4099 1.02979 15.5099 1.03979 15.6099 1.06979C15.7099 1.09979 15.7899 1.11979 15.8599 1.13979C15.9299 1.16979 15.9699 1.17979 15.9899 1.18979L15.9099 1.49979C15.8899 1.48979 15.8599 1.46979 15.7999 1.43979C15.7399 1.40979 15.6799 1.38979 15.5999 1.35979C15.5099 1.33979 15.4299 1.32979 15.3699 1.32979C15.2699 1.32979 15.1999 1.34979 15.1499 1.39979C15.0999 1.44979 15.0699 1.50979 15.0699 1.58979C15.0699 1.67979 15.1099 1.75979 15.1799 1.81979C15.2499 1.87979 15.3599 1.93979 15.4999 2.00979C15.6299 2.06979 15.7299 2.12979 15.8099 2.17979C15.8899 2.22979 15.9599 2.29979 16.0099 2.38979C16.0699 2.47979 16.0899 2.58979 16.0899 2.71979C16.0899 2.94979 16.0099 3.12978 15.8599 3.26978C15.7099 3.39978 15.4899 3.46979 15.1999 3.46979C15.0199 3.46979 14.8699 3.44979 14.7499 3.38979Z" fill="white"/>
<path d="M16.6401 3.17979C16.4501 2.98979 16.3501 2.68979 16.3501 2.28979C16.3501 1.87979 16.4401 1.56979 16.6301 1.35979C16.8201 1.13979 17.0701 1.02979 17.3901 1.02979C17.6801 1.02979 17.9101 1.11979 18.0701 1.29979C18.2301 1.47979 18.3101 1.73979 18.3101 2.07979C18.3101 2.15979 18.3001 2.21979 18.2901 2.27979C18.2801 2.32979 18.2701 2.36979 18.2701 2.37979H17.0101C17.0101 2.65979 17.0501 2.85979 17.1301 2.97979C17.2101 3.09979 17.3401 3.15979 17.5201 3.15979C17.6301 3.15979 17.7201 3.13979 17.8001 3.08979C17.8801 3.04979 17.9501 2.99979 17.9901 2.93979C18.0401 2.88979 18.0601 2.84979 18.0601 2.84979L18.2701 3.00979C18.2701 3.01979 18.2401 3.06979 18.1701 3.14979C18.1101 3.22979 18.0101 3.29979 17.8901 3.36979C17.7701 3.43979 17.6201 3.46979 17.4401 3.46979C17.1001 3.46979 16.8301 3.37979 16.6401 3.17979ZM17.7201 2.07979V1.96979C17.7201 1.72979 17.6901 1.56979 17.6401 1.46979C17.5901 1.36979 17.5001 1.32979 17.3801 1.32979C17.2901 1.32979 17.2201 1.34979 17.1701 1.39979C17.1201 1.43979 17.0801 1.51979 17.0501 1.62979C17.0301 1.72979 17.0101 1.87979 17.0101 2.07979H17.7201Z" fill="white"/>
<path d="M18.6999 1.08006H19.1999L19.2799 1.27006H19.2999C19.2999 1.26006 19.3299 1.24006 19.3799 1.20006C19.4299 1.16006 19.5099 1.12006 19.5999 1.09006C19.6899 1.05006 19.8099 1.03006 19.9599 1.03006C20.1999 1.03006 20.3799 1.09006 20.4999 1.22006C20.6199 1.35006 20.6799 1.55006 20.6799 1.83006V3.42006H20.0599V1.96006C20.0599 1.75006 20.0399 1.61006 19.9899 1.53006C19.9399 1.45006 19.8599 1.42006 19.7399 1.42006C19.6599 1.42006 19.5899 1.43006 19.5199 1.46006C19.4599 1.49006 19.4099 1.51006 19.3699 1.54006C19.3299 1.57006 19.3099 1.59006 19.3099 1.59006V3.42006H18.6899V1.08006H18.6999ZM19.7699 0.630059C19.7199 0.610059 19.6499 0.580059 19.5599 0.540059C19.4899 0.510059 19.4399 0.480059 19.3899 0.460059C19.3399 0.440059 19.2899 0.430059 19.2299 0.430059C19.1799 0.430059 19.1299 0.450059 19.0899 0.480059C19.0499 0.510059 19.0199 0.540059 18.9999 0.580059C18.9799 0.610059 18.9599 0.640059 18.9599 0.650059L18.7899 0.480059C18.7899 0.470059 18.8099 0.430059 18.8599 0.350059C18.9099 0.270059 18.9699 0.210059 19.0599 0.150059C19.1499 0.0900586 19.2499 0.0600586 19.3699 0.0600586C19.4499 0.0600586 19.5299 0.0700586 19.5899 0.0900586C19.6499 0.110059 19.7199 0.140059 19.7899 0.180059C19.8599 0.210059 19.9099 0.230059 19.9499 0.250059C19.9899 0.270059 20.0299 0.270059 20.0799 0.270059C20.1299 0.270059 20.1699 0.260059 20.2099 0.240059C20.2499 0.220059 20.2699 0.190059 20.2899 0.170059C20.3099 0.150059 20.3199 0.130059 20.3199 0.120059L20.4899 0.280059C20.4899 0.290059 20.4699 0.330059 20.4299 0.390059C20.3899 0.450059 20.3299 0.510059 20.2599 0.570059C20.1799 0.620059 20.0799 0.650059 19.9699 0.650059C19.8899 0.650059 19.8199 0.640059 19.7699 0.630059Z" fill="white"/>
<path d="M21.3401 3.14979C21.1501 2.93979 21.0601 2.63979 21.0601 2.24979C21.0601 1.85979 21.1501 1.55979 21.3401 1.34979C21.5301 1.12979 21.8001 1.02979 22.1501 1.02979C22.5001 1.02979 22.7701 1.13979 22.9601 1.34979C23.1501 1.55979 23.2401 1.85979 23.2401 2.24979C23.2401 2.63979 23.1401 2.93979 22.9501 3.14979C22.7501 3.35979 22.4901 3.46979 22.1501 3.46979C21.8001 3.46979 21.5301 3.36979 21.3401 3.14979ZM22.3901 3.06979C22.4501 3.00979 22.5001 2.91979 22.5201 2.77979C22.5501 2.64979 22.5601 2.46979 22.5601 2.23979C22.5601 2.00979 22.5501 1.82979 22.5201 1.69979C22.4901 1.56979 22.4501 1.46979 22.3901 1.41979C22.3301 1.35979 22.2501 1.32979 22.1401 1.32979C22.0301 1.32979 21.9501 1.35979 21.8901 1.41979C21.8301 1.47979 21.7901 1.56979 21.7601 1.69979C21.7301 1.82979 21.7201 2.00979 21.7201 2.22979C21.7201 2.45979 21.7301 2.63979 21.7601 2.76979C21.7901 2.89979 21.8301 2.99979 21.8901 3.05979C21.9501 3.11979 22.0301 3.14979 22.1401 3.14979C22.2501 3.15979 22.3301 3.12979 22.3901 3.06979Z" fill="white"/>
</svg>
