<?xml version="1.0" encoding="utf-8"?>
<!-- Generator: Adobe Illustrator 26.0.3, SVG Export Plug-In . SVG Version: 6.00 Build 0)  -->
<svg version="1.1" id="Capa_1" xmlns="http://www.w3.org/2000/svg" xmlns:xlink="http://www.w3.org/1999/xlink" x="0px" y="0px"
	 viewBox="0 0 25.82 5.41" style="enable-background:new 0 0 25.82 5.41;" xml:space="preserve">
<text transform="matrix(1 0 0 1 485.9797 73.0811)" style="font-family:'Optima-Bold'; font-size:12px;">P</text>
<text transform="matrix(0.7 0 0 0.7 492.6516 73.0811)" style="font-family:'Optima-Bold'; font-size:12px;">erez</text>
<text transform="matrix(1 0 0 1 511.3162 73.0811)" style="font-family:'Optima-Bold'; font-size:12px;"> D</text>
<text transform="matrix(0.7 0 0 0.7 523.9885 73.0811)" style="font-family:'Optima-Bold'; font-size:12px;">iseño</text>
<text transform="matrix(1 0 0 1 485.9797 98.0811)" style="font-family:'PTSans-Narrow'; font-size:12px;">P</text>
<text transform="matrix(0.7 0 0 0.7 491.3918 98.0811)" style="font-family:'PTSans-Narrow'; font-size:12px;">erez</text>
<text transform="matrix(1 0 0 1 506.3181 98.0811)" style="font-family:'PTSans-Narrow'; font-size:12px;"> D</text>
<text transform="matrix(0.7 0 0 0.7 515.1619 98.0811)" style="font-family:'PTSans-Narrow'; font-size:12px;">iseño</text>
<text transform="matrix(1 0 0 1 485.9797 122.0811)" style="font-family:'HelveticaNeue-CondensedBold'; font-size:12px;">P</text>
<text transform="matrix(0.7 0 0 0.7 492.2078 122.0811)" style="font-family:'HelveticaNeue-CondensedBold'; font-size:12px;">erez</text>
<text transform="matrix(1 0 0 1 508.9988 122.0811)" style="font-family:'HelveticaNeue-CondensedBold'; font-size:12px;"> D</text>
<text transform="matrix(0.7 0 0 0.7 518.7668 122.0811)" style="font-family:'HelveticaNeue-CondensedBold'; font-size:12px;">iseño</text>
<g>
	<path d="M486.9,190.28h2.39c0.89,0,1.58,0.22,2.07,0.67c0.49,0.44,0.74,1.1,0.74,1.97c0,0.62-0.14,1.14-0.41,1.55
		s-0.62,0.71-1.04,0.89c-0.42,0.19-0.86,0.28-1.32,0.28h-0.77v2.44h-1.66V190.28z M489.14,194.88c0.4,0,0.7-0.14,0.89-0.41
		c0.19-0.28,0.29-0.77,0.29-1.47c0-0.71-0.1-1.21-0.29-1.5s-0.49-0.43-0.89-0.43h-0.58v3.82H489.14z"/>
	<path d="M493.43,197.47c-0.49-0.49-0.74-1.25-0.74-2.29c0-1.04,0.24-1.84,0.72-2.39c0.48-0.56,1.13-0.83,1.94-0.83
		c0.74,0,1.32,0.23,1.73,0.7c0.41,0.47,0.62,1.14,0.62,2.01c0,0.2-0.01,0.37-0.04,0.5c-0.03,0.13-0.05,0.22-0.05,0.25h-3.23
		c0.01,0.72,0.11,1.23,0.32,1.53c0.2,0.3,0.53,0.45,0.99,0.45c0.27,0,0.51-0.06,0.72-0.17c0.21-0.12,0.37-0.24,0.49-0.38
		c0.12-0.14,0.18-0.22,0.18-0.23l0.54,0.42c0,0.03-0.08,0.15-0.25,0.35c-0.16,0.2-0.4,0.39-0.72,0.56s-0.7,0.26-1.16,0.26
		C494.61,198.21,493.92,197.97,493.43,197.47z M496.22,194.65v-0.28c0-0.61-0.06-1.03-0.19-1.28s-0.35-0.37-0.67-0.37
		c-0.22,0-0.4,0.06-0.53,0.17c-0.13,0.11-0.23,0.31-0.31,0.58c-0.07,0.28-0.12,0.67-0.13,1.17H496.22z M495.49,191.25l-0.68-0.11
		l0.84-1.82l1.3,0.37L495.49,191.25z"/>
	<path d="M498.71,192.08h1.13l0.26,1.01h0.05c0-0.05,0.03-0.17,0.1-0.35c0.06-0.19,0.18-0.37,0.35-0.53s0.4-0.25,0.69-0.25
		c0.16,0,0.34,0.02,0.55,0.07c0.2,0.05,0.34,0.08,0.4,0.1l-0.14,1.12c-0.06-0.02-0.21-0.05-0.43-0.1c-0.22-0.05-0.41-0.07-0.57-0.07
		c-0.18,0-0.33,0.05-0.45,0.16c-0.12,0.11-0.2,0.22-0.26,0.34c-0.06,0.12-0.08,0.19-0.08,0.22v4.3h-1.6V192.08z"/>
	<path d="M503.27,197.47c-0.49-0.49-0.74-1.25-0.74-2.29c0-1.04,0.24-1.84,0.72-2.39c0.48-0.56,1.13-0.83,1.94-0.83
		c0.74,0,1.32,0.23,1.73,0.7c0.41,0.47,0.62,1.14,0.62,2.01c0,0.2-0.01,0.37-0.04,0.5c-0.03,0.13-0.05,0.22-0.05,0.25h-3.23
		c0.01,0.72,0.11,1.23,0.32,1.53c0.2,0.3,0.53,0.45,0.99,0.45c0.27,0,0.51-0.06,0.72-0.17c0.21-0.12,0.37-0.24,0.49-0.38
		c0.12-0.14,0.18-0.22,0.18-0.23l0.54,0.42c0,0.03-0.08,0.15-0.25,0.35c-0.16,0.2-0.4,0.39-0.72,0.56s-0.7,0.26-1.16,0.26
		C504.45,198.21,503.76,197.97,503.27,197.47z M506.06,194.65v-0.28c0-0.61-0.06-1.03-0.19-1.28s-0.35-0.37-0.67-0.37
		c-0.22,0-0.4,0.06-0.53,0.17c-0.13,0.11-0.23,0.31-0.31,0.58c-0.07,0.28-0.12,0.67-0.13,1.17H506.06z"/>
	<path d="M508.15,198.08v-0.72l2.75-4.46h-2.52l-0.04-0.82h4.38v0.72l-2.72,4.46h2.62l0.02,0.82H508.15z"/>
	<path d="M513.75,190.28h2.65c1.21,0,2.14,0.33,2.79,1c0.65,0.67,0.98,1.64,0.98,2.92c0,1.26-0.32,2.23-0.96,2.89
		c-0.64,0.66-1.57,0.99-2.8,0.99h-2.66V190.28z M516.42,197.23c0.46,0,0.83-0.1,1.11-0.29c0.28-0.2,0.48-0.51,0.61-0.95
		c0.13-0.44,0.19-1.03,0.19-1.78s-0.07-1.35-0.2-1.8s-0.34-0.77-0.62-0.97c-0.28-0.2-0.65-0.3-1.12-0.3h-1v6.1H516.42z"/>
	<path d="M521.46,190.94c-0.18-0.18-0.28-0.41-0.28-0.68c0-0.26,0.09-0.49,0.28-0.67c0.17-0.16,0.38-0.24,0.64-0.24
		c0.25,0,0.45,0.08,0.61,0.23c0.18,0.18,0.26,0.41,0.26,0.68c0,0.28-0.09,0.51-0.26,0.7c-0.18,0.15-0.38,0.23-0.61,0.23
		C521.86,191.18,521.64,191.1,521.46,190.94z M521.29,198.08v-6h1.6v6H521.29z"/>
	<path d="M524.73,198.02c-0.31-0.13-0.55-0.27-0.71-0.43c-0.16-0.15-0.24-0.24-0.24-0.28l0.44-0.62c0,0.02,0.06,0.09,0.19,0.22
		s0.29,0.25,0.49,0.35c0.2,0.11,0.41,0.16,0.65,0.16c0.3,0,0.52-0.08,0.68-0.23c0.16-0.15,0.24-0.35,0.24-0.6
		c0-0.24-0.08-0.43-0.25-0.57c-0.17-0.14-0.42-0.29-0.76-0.44c-0.31-0.15-0.56-0.29-0.75-0.41s-0.35-0.3-0.49-0.52
		c-0.14-0.22-0.2-0.5-0.2-0.85c0-0.59,0.2-1.05,0.61-1.37c0.41-0.32,0.91-0.49,1.51-0.49c0.26,0,0.51,0.03,0.77,0.1
		c0.26,0.06,0.47,0.13,0.64,0.19c0.17,0.06,0.28,0.11,0.32,0.13l-0.22,0.8c-0.04-0.02-0.13-0.07-0.28-0.14s-0.32-0.14-0.52-0.2
		s-0.39-0.1-0.56-0.1c-0.25,0-0.44,0.06-0.58,0.18c-0.14,0.12-0.2,0.28-0.2,0.48c0,0.24,0.09,0.43,0.27,0.58
		c0.18,0.15,0.45,0.31,0.82,0.47c0.33,0.16,0.59,0.31,0.79,0.44c0.2,0.13,0.37,0.31,0.52,0.53s0.22,0.5,0.22,0.84
		c0,0.58-0.19,1.06-0.58,1.42c-0.39,0.36-0.95,0.54-1.67,0.54C525.43,198.21,525.04,198.15,524.73,198.02z"/>
	<path d="M529.56,197.47c-0.49-0.49-0.74-1.25-0.74-2.29c0-1.04,0.24-1.84,0.72-2.39c0.48-0.56,1.13-0.83,1.94-0.83
		c0.74,0,1.32,0.23,1.73,0.7s0.62,1.14,0.62,2.01c0,0.2-0.01,0.37-0.04,0.5c-0.03,0.13-0.05,0.22-0.05,0.25h-3.23
		c0.01,0.72,0.11,1.23,0.32,1.53c0.2,0.3,0.53,0.45,0.99,0.45c0.27,0,0.51-0.06,0.72-0.17c0.21-0.12,0.37-0.24,0.49-0.38
		c0.12-0.14,0.18-0.22,0.18-0.23l0.54,0.42c0,0.03-0.08,0.15-0.25,0.35c-0.16,0.2-0.4,0.39-0.72,0.56c-0.32,0.18-0.7,0.26-1.16,0.26
		C530.74,198.21,530.05,197.97,529.56,197.47z M532.35,194.65v-0.28c0-0.61-0.06-1.03-0.19-1.28s-0.35-0.37-0.67-0.37
		c-0.22,0-0.4,0.06-0.53,0.17c-0.13,0.11-0.23,0.31-0.31,0.58c-0.07,0.28-0.12,0.67-0.13,1.17H532.35z"/>
	<path d="M534.84,192.08h1.28l0.2,0.49h0.05c0-0.02,0.07-0.08,0.2-0.18c0.13-0.1,0.32-0.2,0.57-0.29c0.25-0.09,0.56-0.14,0.92-0.14
		c0.62,0,1.08,0.17,1.39,0.5s0.46,0.85,0.46,1.55v4.07h-1.6v-3.74c0-0.54-0.06-0.9-0.17-1.09c-0.12-0.19-0.33-0.29-0.63-0.29
		c-0.21,0-0.39,0.03-0.55,0.1c-0.16,0.06-0.29,0.13-0.38,0.21s-0.14,0.12-0.14,0.12v4.69h-1.6V192.08z M537.6,190.92
		c-0.14-0.05-0.32-0.12-0.53-0.23c-0.17-0.09-0.32-0.16-0.44-0.21c-0.13-0.05-0.26-0.07-0.41-0.07c-0.13,0-0.24,0.04-0.35,0.12
		c-0.1,0.08-0.18,0.16-0.24,0.25s-0.09,0.14-0.11,0.17l-0.43-0.43c0-0.03,0.06-0.14,0.18-0.32s0.29-0.36,0.51-0.52
		c0.22-0.16,0.48-0.24,0.79-0.24c0.22,0,0.4,0.03,0.56,0.08c0.16,0.06,0.33,0.14,0.52,0.24c0.17,0.08,0.3,0.14,0.41,0.18
		c0.1,0.04,0.22,0.06,0.34,0.06c0.13,0,0.24-0.03,0.32-0.08s0.15-0.12,0.2-0.18s0.07-0.1,0.08-0.12l0.43,0.42
		c0,0.03-0.05,0.13-0.14,0.29c-0.1,0.16-0.24,0.31-0.44,0.45c-0.2,0.14-0.45,0.21-0.76,0.21
		C537.89,190.99,537.74,190.96,537.6,190.92z"/>
	<path d="M541.62,197.4c-0.48-0.54-0.73-1.32-0.73-2.32s0.24-1.77,0.73-2.32c0.48-0.54,1.17-0.82,2.07-0.82
		c0.9,0,1.6,0.27,2.08,0.82c0.48,0.54,0.73,1.32,0.73,2.32c0,0.99-0.25,1.76-0.75,2.31c-0.5,0.55-1.19,0.82-2.06,0.82
		C542.8,198.21,542.1,197.94,541.62,197.4z M544.32,197.19c0.16-0.15,0.27-0.4,0.34-0.73s0.11-0.8,0.11-1.38s-0.04-1.04-0.11-1.38
		s-0.18-0.58-0.34-0.73c-0.15-0.15-0.36-0.22-0.64-0.22c-0.27,0-0.48,0.07-0.64,0.22c-0.15,0.15-0.26,0.39-0.34,0.73
		s-0.11,0.79-0.11,1.37c0,0.58,0.04,1.05,0.11,1.39s0.19,0.59,0.34,0.74c0.16,0.15,0.37,0.23,0.63,0.23
		C543.96,197.42,544.17,197.35,544.32,197.19z"/>
</g>
<text transform="matrix(1 0 0 1 485.9797 226.0811)" style="font-family:'Arsenal-Regular'; font-size:12px;">PérezDiseño</text>
<text transform="matrix(1 0 0 1 485.9797 257.0811)"><tspan x="0" y="0" style="font-family:'Arsenal-Bold'; font-size:12px;">Pérez</tspan><tspan x="26.27" y="0" style="font-family:'Arsenal-Regular'; font-size:12px;">Diseño</tspan></text>
<g>
	<path d="M1.29,1.35h0.93c0.35,0,0.62,0.09,0.81,0.26c0.19,0.17,0.29,0.43,0.29,0.77c0,0.24-0.05,0.44-0.16,0.6
		C3.05,3.14,2.91,3.26,2.75,3.33C2.58,3.4,2.41,3.44,2.23,3.44h-0.3v0.95H1.29V1.35z M2.16,3.14c0.16,0,0.27-0.05,0.35-0.16
		c0.07-0.11,0.11-0.3,0.11-0.57c0-0.28-0.04-0.47-0.11-0.59C2.43,1.71,2.31,1.65,2.16,1.65H1.93v1.49H2.16z"/>
	<path d="M3.83,4.15C3.64,3.96,3.54,3.66,3.54,3.26c0-0.41,0.09-0.72,0.28-0.93C4.01,2.11,4.27,2,4.58,2C4.87,2,5.1,2.09,5.26,2.28
		C5.42,2.46,5.5,2.72,5.5,3.06c0,0.08-0.01,0.14-0.02,0.2c-0.01,0.05-0.02,0.09-0.02,0.1H4.2c0,0.28,0.04,0.48,0.12,0.6
		c0.08,0.12,0.21,0.18,0.39,0.18c0.11,0,0.2-0.02,0.28-0.07c0.08-0.04,0.15-0.09,0.19-0.15c0.05-0.05,0.07-0.09,0.07-0.09l0.21,0.16
		c0,0.01-0.03,0.06-0.1,0.14C5.31,4.2,5.21,4.27,5.09,4.34c-0.12,0.07-0.27,0.1-0.45,0.1C4.29,4.44,4.02,4.35,3.83,4.15z M4.92,3.05
		V2.94c0-0.24-0.02-0.4-0.07-0.5C4.8,2.35,4.71,2.3,4.58,2.3c-0.09,0-0.16,0.02-0.21,0.07C4.32,2.41,4.28,2.49,4.26,2.59
		C4.23,2.7,4.21,2.85,4.2,3.05H4.92z M4.64,1.73L4.37,1.68L4.7,0.97L5.2,1.12L4.64,1.73z"/>
	<path d="M5.89,2.05h0.44l0.1,0.39h0.02c0-0.02,0.01-0.06,0.04-0.14C6.52,2.23,6.56,2.16,6.63,2.1C6.7,2.03,6.79,2,6.9,2
		c0.06,0,0.13,0.01,0.21,0.03c0.08,0.02,0.13,0.03,0.16,0.04L7.21,2.5C7.19,2.49,7.13,2.48,7.05,2.46C6.96,2.44,6.89,2.43,6.82,2.43
		c-0.07,0-0.13,0.02-0.18,0.06C6.6,2.54,6.57,2.58,6.55,2.63C6.52,2.68,6.51,2.7,6.51,2.71v1.68H5.89V2.05z"/>
	<path d="M7.67,4.15C7.48,3.96,7.38,3.66,7.38,3.26c0-0.41,0.09-0.72,0.28-0.93C7.85,2.11,8.1,2,8.42,2C8.71,2,8.94,2.09,9.1,2.28
		c0.16,0.18,0.24,0.44,0.24,0.78c0,0.08-0.01,0.14-0.02,0.2C9.31,3.31,9.3,3.34,9.3,3.36H8.04c0,0.28,0.04,0.48,0.12,0.6
		c0.08,0.12,0.21,0.18,0.39,0.18c0.11,0,0.2-0.02,0.28-0.07c0.08-0.04,0.15-0.09,0.19-0.15C9.07,3.86,9.1,3.82,9.1,3.82l0.21,0.16
		c0,0.01-0.03,0.06-0.1,0.14C9.15,4.2,9.05,4.27,8.93,4.34c-0.12,0.07-0.27,0.1-0.45,0.1C8.13,4.44,7.86,4.35,7.67,4.15z M8.76,3.05
		V2.94c0-0.24-0.02-0.4-0.07-0.5C8.63,2.35,8.55,2.3,8.42,2.3c-0.09,0-0.16,0.02-0.21,0.07C8.16,2.41,8.12,2.49,8.09,2.59
		C8.07,2.7,8.05,2.85,8.04,3.05H8.76z"/>
	<path d="M9.58,4.39V4.11l1.07-1.74H9.66L9.65,2.05h1.71v0.28L10.3,4.07h1.02l0.01,0.32H9.58z"/>
	<path d="M11.76,1.35h1.03c0.47,0,0.83,0.13,1.09,0.39c0.25,0.26,0.38,0.64,0.38,1.14c0,0.49-0.12,0.87-0.37,1.13
		c-0.25,0.26-0.61,0.39-1.09,0.39h-1.04V1.35z M12.8,4.06c0.18,0,0.33-0.04,0.43-0.11c0.11-0.08,0.19-0.2,0.24-0.37
		c0.05-0.17,0.07-0.4,0.07-0.69s-0.03-0.53-0.08-0.7C13.42,2,13.34,1.87,13.23,1.8c-0.11-0.08-0.25-0.12-0.44-0.12H12.4v2.38H12.8z"
		/>
	<path d="M14.77,1.6c-0.07-0.07-0.11-0.16-0.11-0.27c0-0.1,0.04-0.19,0.11-0.26c0.07-0.06,0.15-0.09,0.25-0.09
		c0.1,0,0.18,0.03,0.24,0.09c0.07,0.07,0.1,0.16,0.1,0.27c0,0.11-0.03,0.2-0.1,0.27c-0.07,0.06-0.15,0.09-0.24,0.09
		C14.92,1.7,14.84,1.67,14.77,1.6z M14.7,4.39V2.05h0.62v2.34H14.7z"/>
	<path d="M16.04,4.36c-0.12-0.05-0.21-0.11-0.28-0.17c-0.06-0.06-0.09-0.09-0.09-0.11l0.17-0.24c0,0.01,0.02,0.03,0.07,0.08
		s0.11,0.1,0.19,0.14c0.08,0.04,0.16,0.06,0.26,0.06c0.12,0,0.2-0.03,0.27-0.09c0.06-0.06,0.09-0.14,0.09-0.23
		c0-0.09-0.03-0.17-0.1-0.22c-0.07-0.05-0.16-0.11-0.29-0.17c-0.12-0.06-0.22-0.11-0.29-0.16c-0.07-0.05-0.14-0.12-0.19-0.2
		c-0.05-0.09-0.08-0.2-0.08-0.33c0-0.23,0.08-0.41,0.24-0.54C16.17,2.06,16.36,2,16.6,2c0.1,0,0.2,0.01,0.3,0.04
		c0.1,0.03,0.18,0.05,0.25,0.07c0.07,0.03,0.11,0.04,0.13,0.05l-0.08,0.31c-0.02-0.01-0.05-0.03-0.11-0.06
		c-0.06-0.03-0.12-0.05-0.2-0.08C16.8,2.31,16.72,2.3,16.66,2.3c-0.1,0-0.17,0.02-0.22,0.07c-0.05,0.05-0.08,0.11-0.08,0.19
		c0,0.09,0.04,0.17,0.11,0.23c0.07,0.06,0.18,0.12,0.32,0.19c0.13,0.06,0.23,0.12,0.31,0.17c0.08,0.05,0.15,0.12,0.2,0.21
		c0.06,0.09,0.08,0.2,0.08,0.33c0,0.23-0.08,0.41-0.23,0.55C17,4.37,16.78,4.44,16.49,4.44C16.31,4.44,16.16,4.42,16.04,4.36z"/>
	<path d="M17.93,4.15c-0.19-0.19-0.29-0.49-0.29-0.89c0-0.41,0.09-0.72,0.28-0.93C18.11,2.11,18.36,2,18.68,2
		c0.29,0,0.52,0.09,0.68,0.27c0.16,0.18,0.24,0.44,0.24,0.78c0,0.08-0.01,0.14-0.02,0.2c-0.01,0.05-0.02,0.09-0.02,0.1H18.3
		c0,0.28,0.04,0.48,0.12,0.6c0.08,0.12,0.21,0.18,0.39,0.18c0.11,0,0.2-0.02,0.28-0.07c0.08-0.04,0.15-0.09,0.19-0.15
		c0.05-0.05,0.07-0.09,0.07-0.09l0.21,0.16c0,0.01-0.03,0.06-0.1,0.14c-0.06,0.08-0.16,0.15-0.28,0.22c-0.12,0.07-0.27,0.1-0.45,0.1
		C18.39,4.44,18.12,4.35,17.93,4.15z M19.01,3.05V2.94c0-0.24-0.03-0.4-0.08-0.5c-0.05-0.1-0.14-0.14-0.26-0.14
		c-0.09,0-0.16,0.02-0.21,0.07c-0.05,0.04-0.09,0.12-0.12,0.23C18.32,2.7,18.3,2.85,18.3,3.05H19.01z"/>
	<path d="M19.99,2.05h0.5l0.08,0.19h0.02c0-0.01,0.03-0.03,0.08-0.07c0.05-0.04,0.13-0.08,0.22-0.11C20.98,2.02,21.1,2,21.25,2
		c0.24,0,0.42,0.06,0.54,0.19c0.12,0.13,0.18,0.33,0.18,0.61v1.59h-0.62V2.93c0-0.21-0.02-0.35-0.07-0.43
		c-0.05-0.08-0.13-0.11-0.25-0.11c-0.08,0-0.15,0.01-0.22,0.04c-0.06,0.03-0.11,0.05-0.15,0.08c-0.04,0.03-0.06,0.05-0.06,0.05v1.83
		h-0.62V2.05z M21.06,1.6c-0.05-0.02-0.12-0.05-0.21-0.09c-0.07-0.03-0.12-0.06-0.17-0.08c-0.05-0.02-0.1-0.03-0.16-0.03
		c-0.05,0-0.1,0.02-0.14,0.05c-0.04,0.03-0.07,0.06-0.09,0.1c-0.02,0.03-0.04,0.06-0.04,0.07l-0.17-0.17c0-0.01,0.02-0.05,0.07-0.13
		s0.11-0.14,0.2-0.2c0.09-0.06,0.19-0.09,0.31-0.09c0.08,0,0.16,0.01,0.22,0.03c0.06,0.02,0.13,0.05,0.2,0.09
		c0.07,0.03,0.12,0.05,0.16,0.07c0.04,0.02,0.08,0.02,0.13,0.02c0.05,0,0.09-0.01,0.13-0.03s0.06-0.05,0.08-0.07
		c0.02-0.02,0.03-0.04,0.03-0.05l0.17,0.16c0,0.01-0.02,0.05-0.06,0.11c-0.04,0.06-0.1,0.12-0.17,0.18
		c-0.08,0.05-0.18,0.08-0.29,0.08C21.18,1.62,21.11,1.61,21.06,1.6z"/>
	<path d="M22.63,4.12c-0.19-0.21-0.28-0.51-0.28-0.9s0.09-0.69,0.28-0.9C22.82,2.1,23.09,2,23.44,2c0.35,0,0.62,0.11,0.81,0.32
		c0.19,0.21,0.28,0.51,0.28,0.9c0,0.39-0.1,0.69-0.29,0.9c-0.2,0.21-0.46,0.32-0.8,0.32C23.09,4.44,22.82,4.34,22.63,4.12z
		 M23.68,4.04c0.06-0.06,0.11-0.15,0.13-0.29c0.03-0.13,0.04-0.31,0.04-0.54s-0.01-0.41-0.04-0.54c-0.03-0.13-0.07-0.23-0.13-0.28
		c-0.06-0.06-0.14-0.09-0.25-0.09c-0.11,0-0.19,0.03-0.25,0.09c-0.06,0.06-0.1,0.15-0.13,0.28c-0.03,0.13-0.04,0.31-0.04,0.53
		c0,0.23,0.01,0.41,0.04,0.54s0.07,0.23,0.13,0.29c0.06,0.06,0.14,0.09,0.25,0.09C23.54,4.13,23.62,4.1,23.68,4.04z"/>
</g>
</svg>
